<?xml version="1.0" encoding="utf-8"?>
<!-- Generator: Adobe Illustrator 15.1.0, SVG Export Plug-In . SVG Version: 6.00 Build 0)  -->
<!DOCTYPE svg PUBLIC "-//W3C//DTD SVG 1.1//EN" "http://www.w3.org/Graphics/SVG/1.1/DTD/svg11.dtd">
<svg version="1.1" id="Layer_1" xmlns="http://www.w3.org/2000/svg" xmlns:xlink="http://www.w3.org/1999/xlink" x="0px" y="0px"
	 width="288.728px" height="232.282px" viewBox="0 0 288.728 232.282" enable-background="new 0 0 288.728 232.282"
	 xml:space="preserve">
<g>
	<path fill="#424242" d="M23.145,207.181H19.62v-17.888l-5.863,11.037h-3.69l-5.864-11.037v17.888H0.678v-24.146h3.854l7.379,13.605
		l7.379-13.605h3.854V207.181z"/>
	<path fill="#424242" d="M49.071,207.181h-3.689l-2.272-6.029h-9.884l-2.272,6.029h-3.69l3.822-10.212l0.538-1.332l0.714-1.962
		l3.986-10.641h3.689L49.071,207.181z M41.791,197.628l-3.624-9.884l-3.624,9.884H41.791z"/>
	<path fill="#424242" d="M69.924,203.162l-4.537,4.02H57.2l-4.537-4.02v-4.381h3.524v2.701l2.505,2.176h5.204l2.504-2.176v-2.701
		l-2.504-2.141h-6.193l-4.545-4.052v-5.535l4.538-4.018h7.659l4.538,4.018v4.02h-3.492v-2.504l-2.347-2.009h-5.024l-2.347,2.009
		v2.504l2.339,2.042h6.357l4.546,4.019V203.162z"/>
	<path fill="#424242" d="M92.259,203.162l-4.537,4.02h-8.187l-4.537-4.02v-4.381h3.524v2.701l2.504,2.176h5.204l2.505-2.176v-2.701
		l-2.505-2.141h-6.192l-4.546-4.052v-5.535l4.537-4.018h7.66l4.537,4.018v4.02h-3.492v-2.504l-2.346-2.009h-5.026l-2.346,2.009
		v2.504l2.339,2.042h6.357l4.546,4.019V203.162z"/>
	<path fill="#424242" d="M113.31,207.148H98.716v-24.113h14.594v3.524h-11.07v6.853h8.533v3.524h-8.533v6.688h11.07V207.148z"/>
	<path fill="#424242" d="M137.128,183.035l-9.06,13.605v10.541h-3.524V196.64l-9.027-13.605h4.02l6.819,9.982l6.753-9.982H137.128z"
		/>
	<path fill="#424242" d="M172.443,202.668l-3.789,4.513h-12.058v-24.146h11.696l3.919,4.545v4.843l-2.24,2.569l2.472,2.636V202.668z
		 M168.687,190.92v-1.837l-2.076-2.524h-6.49v6.853h6.49L168.687,190.92z M168.918,201.131v-1.998l-1.944-2.131h-6.852v6.656h6.852
		L168.918,201.131z"/>
	<path fill="#424242" d="M195.075,207.181h-3.822l-5.041-10.212h-4.316v10.212h-3.525v-24.146h11.662l3.92,4.545v4.843l-3.92,4.546
		L195.075,207.181z M190.43,190.895v-1.854l-2.076-2.482h-6.457v6.885h6.457L190.43,190.895z"/>
	<path fill="#424242" d="M217.805,203.162l-4.514,4.02h-8.565l-4.545-4.02v-16.109l4.545-4.018h8.565l4.514,4.018V203.162z
		 M214.28,201.516v-12.783l-2.513-2.174h-5.551l-2.512,2.174v12.783l2.512,2.142h5.551L214.28,201.516z"/>
	<path fill="#424242" d="M242.248,203.162l-4.513,4.02h-8.566l-4.545-4.02v-16.109l4.545-4.018h8.566l4.513,4.018V203.162z
		 M238.723,201.516v-12.783l-2.512-2.174h-5.551l-2.511,2.174v12.783l2.511,2.142h5.551L238.723,201.516z"/>
	<path fill="#424242" d="M266.922,207.148h-4.052l-7.841-10.607l-2.47,3.063v7.544h-3.526v-24.113h3.526v11.596l9.323-11.596h4.019
		l-8.731,10.838L266.922,207.148z"/>
	<path fill="#424242" d="M288.105,203.162l-4.539,4.02h-8.187l-4.537-4.02v-4.381h3.525v2.701l2.503,2.176h5.205l2.503-2.176v-2.701
		l-2.503-2.141h-6.193l-4.547-4.052v-5.535l4.539-4.018h7.66l4.538,4.018v4.02h-3.493v-2.504l-2.346-2.009h-5.026l-2.346,2.009
		v2.504l2.339,2.042h6.357l4.547,4.019V203.162z"/>
</g>
<rect x="175.34" y="25.283" fill="#424242" width="25.223" height="49.034"/>
<polygon fill="#95B7BF" points="247.002,74.317 247.002,100.012 271.048,86.518 "/>
<rect x="200.563" y="74.317" fill="#424242" width="46.439" height="25.695"/>
<polygon fill="#424242" points="271.048,86.518 288.728,104.489 288.694,140.578 261.754,172.618 249.732,147.628 263.505,129.613 
	263.505,115.259 247.002,100.012 "/>
<polygon fill="#3E5F6B" points="200.563,147.633 249.732,147.628 261.754,172.618 200.563,172.618 "/>
<polygon fill="#3D6B6D" points="0,172.851 25.221,172.851 25.221,151.207 "/>
<polygon fill="#424242" points="0,172.851 25.221,151.207 25.221,44.85 0,0.061 "/>
<polygon fill="#95B7BF" points="0,0.061 25.221,0 25.221,44.85 "/>
<polygon fill="#3E5F6B" points="25.221,0 80.383,97.418 67.184,123.82 25.221,44.85 "/>
<polygon fill="#424242" points="67.184,123.82 93.584,123.82 80.383,97.418 "/>
<polygon fill="#95B7BF" points="93.584,123.82 135.544,44.85 135.544,0 80.383,97.418 "/>
<polygon fill="#424242" points="135.544,44.85 160.768,0.061 135.544,0 "/>
<polygon fill="#3E5F6B" points="160.768,0.061 160.768,172.851 135.544,151.207 135.544,44.85 "/>
<polygon fill="#424242" points="135.544,151.207 135.544,172.851 160.768,172.851 "/>
<polygon fill="#424242" points="200.563,25.283 249.596,25.283 261.618,0.061 200.563,0.061 "/>
<rect x="175.364" y="74.317" fill="#3E5F6B" width="25.2" height="25.695"/>
<rect x="175.34" y="0.061" fill="#95B7BF" width="25.223" height="25.223"/>
<rect x="175.34" y="147.628" fill="#424242" width="25.223" height="24.99"/>
<rect x="175.34" y="100.012" fill="#95B7BF" width="25.223" height="47.619"/>
<polygon fill="#3E5F6B" points="271.048,86.565 288.728,68.595 288.694,32.507 261.618,0.061 249.596,25.283 263.505,43.471 
	263.505,57.826 247.002,74.317 "/>
<g>
	<path fill="#424242" d="M112.549,229.151l-3.496,3.105h-9.749v-18.645h9.749l3.496,3.106V229.151z M109.824,227.875v-9.855
		l-1.968-1.683h-5.826v13.195h5.826L109.824,227.875z"/>
	<path fill="#424242" d="M128.164,232.256h-11.284v-18.645h11.284v2.725h-8.558v5.299h6.596v2.725h-6.596v5.172h8.558V232.256z"/>
	<path fill="#424242" d="M144.949,229.174l-3.509,3.107h-6.331l-3.508-3.107v-3.387h2.725v2.087l1.936,1.683h4.024l1.936-1.683
		v-2.087l-1.936-1.657h-4.788l-3.516-3.133v-4.279l3.509-3.106h5.922l3.508,3.106v3.109h-2.7v-1.937l-1.814-1.555h-3.885
		l-1.814,1.555v1.937l1.808,1.58h4.916l3.516,3.106V229.174z"/>
	<path fill="#424242" d="M153.022,232.282h-2.726v-18.67h2.726V232.282z"/>
	<path fill="#424242" d="M172.321,229.174l-3.489,3.107h-6.623l-3.49-3.107v-12.456l3.49-3.106h6.571l3.49,3.106l0.051,3.897h-2.725
		v-2.471l-1.936-1.809h-4.279l-1.936,1.683v9.855l1.936,1.683h4.279l1.936-1.81v-1.985h-3.617v-2.727h6.342V229.174z"/>
	<path fill="#424242" d="M190.328,232.282h-2.725l-7.794-13.831v13.831h-2.725v-18.67h2.878l7.641,13.448v-13.448h2.725V232.282z"/>
</g>
</svg>
